<?xml version="1.0" encoding="UTF-8"?>
<svg xmlns="http://www.w3.org/2000/svg" xmlns:xlink="http://www.w3.org/1999/xlink" viewBox="0 0 32 32">
  <defs>
    <style>
      .cls-1 {
        fill: #fff;
      }

      .cls-1, .cls-2 {
        fill-rule: evenodd;
      }

      .cls-2 {
        fill: url(#linear-gradient);
      }

      .cls-3 {
        fill: #101624;
      }
    </style>
    <linearGradient id="linear-gradient" x1="5.17" y1="16.83" x2="26.7" y2="16.83" gradientUnits="userSpaceOnUse">
      <stop offset="0" stop-color="#52de97"/>
      <stop offset="1" stop-color="#52de87"/>
    </linearGradient>
  </defs>
  <g id="bg">
    <rect class="cls-3" width="32" height="32"/>
  </g>
  <g id="Design">
    <path class="cls-1" d="M19.19,10.28h0s0,0,0,0Zm3.86,5.85c-.33-2.49-1.8-4.62-3.86-5.85h.04s-.04,0-.04,0c-.35-.21-.72-.39-1.1-.55-.34-.14-.69-.25-1.05-.34-.51,.1-.89,.55-.89,1.09,0,.38,.19,.71,.48,.91,.21,.06,.42,.12,.62,.2,1.93,.75,3.37,2.45,3.74,4.53h-5.53s-.01,0-.01,0c-.54,0-.97,.48-.97,1.08s.44,1.08,.97,1.08h7.61c.05-.36,.07-.73,.07-1.1s-.02-.71-.07-1.06Zm-3.55,7.66c-1.85,1.24-4.21,1.7-6.53,1.08-4.28-1.15-6.82-5.54-5.67-9.81,.65-2.41,2.33-4.27,4.45-5.23,.4-.18,.81-.33,1.23-.44,0,0,0,0,.01,0,.62,.17,.99,.8,.82,1.42-.06,.24-.2,.44-.37,.59-.26,.07-.52,.17-.76,.27-1.6,.7-2.89,2.1-3.38,3.92-.85,3.17,1.03,6.44,4.21,7.29,1.67,.45,3.37,.14,4.73-.72,.3-.19,.58-.41,.85-.65,.16-.03,.33-.02,.5,.02,.62,.17,.99,.8,.82,1.42-.02,.07-.05,.14-.08,.21-.26,.23-.54,.44-.83,.63Z"/>
    <path class="cls-2" d="M7.08,12.67c-.28,.23-.67,.33-1.05,.23-.57-.15-.93-.71-.85-1.29,.14-.26,.3-.52,.46-.77,2.64-4.03,7.66-6.1,12.56-4.79,6.11,1.64,9.74,7.92,8.11,14.03-.97,3.61-3.56,6.35-6.78,7.65-.24,.1-.48,.19-.73,.27-.1,0-.21-.01-.31-.04-.62-.17-.99-.8-.82-1.42,.06-.23,.18-.42,.35-.56,.28-.09,.55-.19,.81-.3,2.56-1.07,4.61-3.27,5.39-6.16,1.33-4.95-1.61-10.04-6.57-11.37-3.97-1.06-8.03,.61-10.17,3.87-.14,.21-.27,.43-.39,.65"/>
  </g>
</svg>